<svg xmlns="http://www.w3.org/2000/svg" width="680" height="250" viewBox="0 0 680 250" font-family="-apple-system, 'Segoe UI', Roboto, Helvetica, Arial, sans-serif" font-size="14">
  <rect width="680" height="250" rx="10" fill="#313338"/>
  <rect x="0" y="0" width="680" height="40" rx="10" fill="#2b2d31"/>
  <rect x="0" y="20" width="680" height="20" fill="#2b2d31"/>
  <text x="18" y="26" fill="#949ba4" font-size="15" font-weight="600"># florilegium</text>

  <!-- message 1: T-24h -->
  <circle cx="34" cy="70" r="18" fill="#5865f2"/>
  <text x="34" y="76" text-anchor="middle" fill="#fff" font-weight="700" font-size="16">M</text>
  <text x="64" y="66" fill="#f2f3f5" font-weight="600" font-size="15">Marginalia</text>
  <rect x="162" y="54" width="34" height="16" rx="4" fill="#5865f2"/>
  <text x="179" y="66" text-anchor="middle" fill="#fff" font-size="10" font-weight="700">APP</text>
  <text x="206" y="66" fill="#949ba4" font-size="12">Saturday at 7:00 PM</text>
  <rect x="64" y="78" width="162" height="20" rx="4" fill="#5865f2" fill-opacity="0.3"/>
  <text x="70" y="93" fill="#c9cdfb" font-weight="500">@Marginalia 2026-10</text>
  <text x="232" y="93" fill="#dbdee1"><tspan font-weight="700">Pages 32-62</tspan> is due tomorrow --</text>
  <rect x="64" y="104" width="248" height="20" rx="4" fill="#3f4147"/>
  <text x="70" y="119" fill="#dbdee1">Sunday, October 11, 2026 7:00 PM</text>
  <rect x="318" y="104" width="72" height="20" rx="4" fill="#3f4147"/>
  <text x="324" y="119" fill="#dbdee1">(in a day)</text>
  <text x="400" y="119" fill="#6d6f78" font-size="12">shown in each reader's own timezone</text>

  <!-- message 2: unlock -->
  <circle cx="34" cy="160" r="18" fill="#5865f2"/>
  <text x="34" y="166" text-anchor="middle" fill="#fff" font-weight="700" font-size="16">M</text>
  <text x="64" y="156" fill="#f2f3f5" font-weight="600" font-size="15">Marginalia</text>
  <rect x="162" y="144" width="34" height="16" rx="4" fill="#5865f2"/>
  <text x="179" y="156" text-anchor="middle" fill="#fff" font-size="10" font-weight="700">APP</text>
  <text x="206" y="156" fill="#949ba4" font-size="12">Sunday at 7:00 PM</text>
  <rect x="64" y="168" width="162" height="20" rx="4" fill="#5865f2" fill-opacity="0.3"/>
  <text x="70" y="183" fill="#c9cdfb" font-weight="500">@Marginalia 2026-10</text>
  <rect x="232" y="168" width="178" height="20" rx="4" fill="#5865f2" fill-opacity="0.3"/>
  <text x="238" y="183" fill="#c9cdfb" font-weight="500"># 2026-10 Pages 32-62</text>
  <text x="416" y="183" fill="#dbdee1"><tspan font-weight="700">Pages 32-62</tspan> is open</text>
  <!-- thread pill -->
  <rect x="64" y="200" width="350" height="34" rx="6" fill="#2b2d31"/>
  <text x="76" y="222" fill="#949ba4" font-size="13">&#8627;</text>
  <text x="96" y="222" fill="#f2f3f5" font-weight="600" font-size="13">2026-10 Pages 32-62</text>
  <text x="268" y="222" fill="#00a8fc" font-size="13">14 messages &#8250;</text>
  <text x="424" y="222" fill="#6d6f78" font-size="12">a public thread, gated at pages 1-62</text>
</svg>
